<svg xmlns="http://www.w3.org/2000/svg" xmlns:xlink="http://www.w3.org/1999/xlink" width="24" height="24" viewBox="0 0 24 24">
    <defs>
        <path id="2v986ykvla" d="M14.427 5.26c.409-.371 1.041-.342 1.413.067.372.408.343 1.04-.066 1.412L10 12l5.774 5.26c.409.373.438 1.005.066 1.413-.372.409-1.004.438-1.413.066l-5.774-5.26c-.046-.042-.09-.086-.131-.132-.744-.817-.685-2.082.131-2.825l5.774-5.261z"/>
    </defs>
    <g fill="none" fill-rule="evenodd">
        <g>
            <g>
                <g>
                    <g transform="translate(-1192 -3658) translate(0 3598) translate(1137 24) rotate(-90 57.5 2.5)">
                        <mask id="9g57u3p8bb" fill="#fff">
                            <use xlink:href="#2v986ykvla"/>
                        </mask>
                        <g fill="#253342" mask="url(#9g57u3p8bb)">
                            <path d="M0 0H24V24H0z"/>
                        </g>
                    </g>
                </g>
            </g>
        </g>
    </g>
</svg>
