<svg xmlns="http://www.w3.org/2000/svg" width="317" height="54" viewBox="0 0 317 54">
    <g fill="none" fill-rule="evenodd">
        <g>
            <g>
                <path fill="#1E1E1E" d="M76.897 0L62.415 54 185.484 54 199.965 0z" transform="translate(-120 -13) translate(120.096 13)"/>
                <path fill="#76B900" d="M199.965 0L185.484 54 188.194 54 202.673 0zM0 0L0 54 62.415 54 76.897 0z" transform="translate(-120 -13) translate(120.096 13)"/>
                <g>
                    <path fill="#FFF" d="M38.781 32.558l1.396 3.817h-2.842l1.446-3.817zm6.473 5.812h-.203v.313h.19c.086.005.16-.06.165-.145v-.01c-.005-.083-.074-.148-.157-.148l.005-.01zm.16.988l-.22-.47h-.143v.47h-.25v-1.213h.5c.213-.01.393.155.403.367v.016c0 .143-.09.27-.225.32l.25.5-.315.01zm-.205-1.525c-.509-.008-.927.397-.936.905-.008.508.397.926.906.935.508.008.927-.397.935-.905v-.015c.009-.494-.385-.902-.88-.91h-.03l.005-.01zm0 2.06c-.63 0-1.141-.51-1.141-1.14 0-.63.51-1.14 1.14-1.14.63 0 1.142.51 1.142 1.14.005.63-.501 1.144-1.131 1.15h-.015l.005-.01zm-7.924-8.82l-3.225 8.152h2.274l.5-1.44h3.811l.48 1.44h2.47l-3.253-8.15-3.057-.002zm-6.463 8.15h2.307V31.08h-2.307v8.143zM14.81 31.07l-1.924 6.463-1.844-6.463H8.554l2.632 8.155h3.323l2.652-8.152-2.352-.003zm9.32 1.775h1.001c1.439 0 2.37.645 2.37 2.318 0 1.672-.931 2.32-2.37 2.32h-1v-4.638zm-2.286-1.775v8.155h3.74c2.002 0 2.642-.33 3.345-1.072.5-.52.818-1.665.818-2.915 0-1.145-.272-2.168-.75-2.805-.853-1.138-2.084-1.36-3.92-1.36l-3.233-.003zM0 31.078v8.147h2.324v-6.2h1.802c.598 0 1.023.15 1.31.455.364.39.501 1.015.501 2.16v3.585H8.19v-4.5c0-3.22-2.057-3.655-4.066-3.655H0v.008zm18.132 8.147h2.307v-8.147h-2.307v8.147zM6.205 14.853c2.14-2.798 5.373-4.553 8.887-4.825V8.44c-6.558.528-12.24 6.078-12.24 6.078S6.07 23.81 15.092 24.66v-1.685c-6.628-.842-8.894-8.132-8.894-8.132l.007.01zm8.87 4.76v1.542c-5.004-.89-6.393-6.087-6.393-6.087 1.724-1.722 3.98-2.812 6.403-3.093v1.695c-2.095-.25-3.73 1.703-3.73 1.703s.917 3.292 3.737 4.25l-.017-.01zm0-14.108V8.43c.192-.015.385-.027.578-.032 7.458-.25 12.317 6.11 12.317 6.11s-5.582 6.78-11.394 6.78c-.504 0-1.006-.044-1.501-.133v1.82c.415.053.832.08 1.25.08 5.413 0 9.326-2.75 13.114-6.027.628.5 3.2 1.725 3.728 2.25-3.603 3.015-11.997 5.442-16.764 5.442-.46 0-.9-.027-1.333-.07v2.543h20.564V5.505h-20.56zm.01 6.47v-1.957c.19-.015.382-.025.578-.03 5.364-.168 8.882 4.605 8.882 4.605s-3.8 5.273-7.874 5.273c-.539.002-1.075-.082-1.586-.25V13.67c2.089.25 2.502 1.175 3.753 3.265l2.792-2.352s-2.04-2.67-5.474-2.67c-.362.002-.722.023-1.081.062h.01zM76.887 24.125L83.392 33.68 83.392 24.125 86.179 24.125 86.179 38.513 83.304 38.513 76.802 28.975 76.802 38.51 74.014 38.51 74.014 24.125zM97.045 35.96c.394.003.716-.314.718-.707v-7.835c.012-.403-.306-.739-.71-.75h-4.989c-.403.007-.725.339-.718.742v7.833c-.004.392.31.713.703.717H97.045zm-8.486-9.43c-.002-1.32 1.064-2.395 2.386-2.405h7.219c1.322.01 2.388 1.084 2.387 2.405v9.598c.001 1.316-1.065 2.384-2.382 2.385h-7.224c-1.316.001-2.385-1.064-2.386-2.38V26.53zM110.741 24.125L113.106 24.125 116.078 33.92 118.713 24.125 121.58 24.125 117.237 38.513 114.792 38.513 111.855 29.243 109.103 38.513 106.651 38.513 102.034 24.125 105.154 24.125 107.957 33.92zM126.284 24.125h.263V26.1h-.25v-1.537l-.579.985h-.215l-.543-.938v1.5h-.25v-1.975h.25l.666 1.148.658-1.158zm-1.887 0v.228h-.643v1.75h-.25v-1.75h-.613v-.228h1.506zM74.014 8.608c0-1.328 1.078-2.405 2.407-2.405h9.12v2.595h-7.964c-.402 0-.733.316-.75.717v6.75c.005.187.08.366.21.5l1 1c.14.141.33.217.529.21h3.863c.392.004.714-.31.718-.702V14.683h-3.368v-2.595h6.255v6.117c-.008 1.32-1.083 2.386-2.404 2.383h-6.425c-.198.004-.388-.072-.528-.21l-2.45-2.448c-.132-.133-.209-.312-.213-.5V8.608zM91.308 8.755L91.308 12.13 97.155 12.13 97.155 14.683 91.308 14.683 91.308 18.035 98.594 18.035 98.594 20.588 88.501 20.588 88.501 6.203 98.594 6.203 98.594 8.755zM103.496 20.588L100.688 20.588 100.688 6.203 110.779 6.203 110.779 8.755 103.496 8.755 103.496 12.13 109.353 12.13 109.353 14.683 103.496 14.683zM121.257 18.035c.393.005.714-.31.718-.702v-7.84c.005-.401-.316-.73-.718-.738h-4.981c-.402.006-.724.336-.718.738v7.825c-.004.392.31.713.703.717H121.257zm-8.486-9.427c-.003-1.322 1.064-2.397 2.387-2.405h7.218c1.322.008 2.39 1.083 2.387 2.405v9.597c0 1.316-1.068 2.383-2.385 2.383h-7.22c-1.317.001-2.386-1.064-2.387-2.38v-9.6zM129.922 12.173h4.701c.392.004.714-.31.718-.703V9.493c.006-.402-.316-.732-.718-.738h-4.691l-.01 3.418zm9.205 8.415h-3.003l-3.553-5.863h-2.64v5.863h-2.787V6.203h8.635c1.328-.002 2.405 1.073 2.407 2.4v3.717c0 1.329-1.078 2.405-2.407 2.405h-.155l3.503 5.863zM150.236 8.755h-6.105c-.395.004-.714.323-.718.718v7.845c-.004.392.31.713.703.717h6.12v2.553h-7.199c-1.322.004-2.398-1.062-2.407-2.383V8.608c-.001-1.327 1.074-2.404 2.402-2.405h7.204v2.552zM155.347 8.755L155.347 12.13 161.194 12.13 161.194 14.683 155.347 14.683 155.347 18.035 162.63 18.035 162.63 20.588 152.54 20.588 152.54 6.203 162.63 6.203 162.63 8.755z" transform="translate(-120 -13) translate(120.096 13) translate(10.859 4.64)"/>
                    <path fill="#000" d="M209.91 3.838c0-1.317-1.01-1.74-2.051-1.74h-1.335v3.48h1.335c1.041 0 2.05-.407 2.05-1.74m2.132 0c0 2.179-1.448 3.724-4.133 3.724h-1.384v3.708c0 .146-.098.244-.244.244h-1.741c-.147 0-.244-.098-.244-.244V.374c0-.146.097-.244.244-.244h3.369c2.685 0 4.133 1.545 4.133 3.708M222.962 5.87c0-2.097-1.563-3.691-3.597-3.691-2.035 0-3.597 1.594-3.597 3.692 0 2.081 1.562 3.675 3.597 3.675 2.034 0 3.597-1.594 3.597-3.675m-9.456 0c0-3.27 2.636-5.871 5.859-5.871 3.222 0 5.859 2.602 5.859 5.87 0 3.253-2.637 5.855-5.86 5.855-3.222 0-5.858-2.602-5.858-5.854M242.768.407L239.3 11.318c-.049.13-.179.196-.309.196h-1.725c-.13 0-.244-.066-.277-.196l-2.636-7.854-2.637 7.854c-.049.13-.146.196-.277.196h-1.725c-.13 0-.26-.066-.293-.196L225.972.407c-.065-.163.016-.277.195-.277h1.807c.13 0 .228.049.276.195l2.36 8.261 2.653-8.26c.016-.082.065-.131.13-.163.033-.017.082-.033.13-.033h1.66c.065 0 .115.016.147.033.049.032.081.08.114.162l2.653 8.261 2.392-8.26c.033-.147.147-.196.277-.196h1.807c.179 0 .244.114.195.277M250.986 9.79v1.48c0 .146-.098.243-.245.243h-6.005c-.147 0-.244-.097-.244-.244V.374c0-.147.097-.244.244-.244h5.99c.146 0 .243.097.243.244v1.48c0 .146-.097.244-.244.244h-4.004v2.57h3.76c.146 0 .244.097.244.243v1.48c0 .146-.098.244-.244.244h-3.76v2.91h4.02c.147 0 .245.098.245.245M255.412 5.578h1.335c1.041 0 2.05-.407 2.05-1.74 0-1.317-1.009-1.74-2.05-1.74h-1.335v3.48zm5.55 5.936h-1.856c-.13 0-.228-.05-.293-.163l-2.457-3.79h-.944v3.709c0 .146-.098.244-.244.244h-1.742c-.146 0-.244-.098-.244-.244V.374c0-.146.098-.244.244-.244h3.37c2.685 0 4.133 1.545 4.133 3.708 0 1.642-.83 2.927-2.392 3.464l2.588 3.919c.113.179.032.293-.163.293zM269.62 9.79v1.48c0 .146-.098.243-.245.243h-6.005c-.147 0-.244-.097-.244-.244V.374c0-.147.097-.244.244-.244h5.989c.147 0 .244.097.244.244v1.48c0 .146-.097.244-.244.244h-4.004v2.57h3.76c.146 0 .244.097.244.243v1.48c0 .146-.098.244-.244.244h-3.76v2.91h4.02c.147 0 .244.098.244.245M278.977 5.822c0-2.342-1.237-3.724-3.71-3.724h-1.221v7.448h1.22c2.474 0 3.711-1.383 3.711-3.724m2.262 0c0 3.17-2.067 5.691-5.973 5.691h-3.206c-.146 0-.244-.097-.244-.243V.374c0-.146.098-.244.244-.244h3.206c3.906 0 5.973 2.52 5.973 5.692M293.754 7.985c0-1.025-.716-1.53-1.905-1.53h-1.953v3.09h1.953c1.189 0 1.905-.487 1.905-1.56m-2.181-5.887h-1.677v2.52h1.677c.911 0 1.497-.422 1.497-1.333 0-.862-.602-1.187-1.497-1.187m4.41 6.13c0 2.147-1.35 3.285-4.199 3.285h-3.873c-.147 0-.244-.097-.244-.243V.374c0-.146.097-.244.244-.244h3.873c2.263 0 3.386 1.334 3.386 2.878 0 1.188-.619 2.082-1.449 2.407 1.204.31 2.262 1.334 2.262 2.814M305.195.423l-3.337 5.805v5.042c0 .146-.097.244-.244.244h-1.741c-.147 0-.244-.098-.244-.244V6.18L296.292.423c-.097-.18-.032-.293.163-.293h1.839c.13 0 .228.049.293.162l2.164 3.806 2.165-3.805c.065-.114.163-.163.293-.163h1.823c.195 0 .26.114.163.293" transform="translate(-120 -13) translate(120.096 13) translate(10.859 4.64)"/>
                    <path fill="#292929" d="M209.704 32.461c-.844.915-1.26 2.139-1.26 3.66 0 1.52.475 2.685 1.415 3.493.939.82 2.08 1.224 3.4 1.224.952 0 1.75-.138 2.394-.417.894-.385 1.46-1.28 1.46-2.252v-.206h-3.693c-.988 0-1.79-.801-1.79-1.789 0-.987.802-1.788 1.79-1.788h5.108c1.49 0 2.7 1.208 2.7 2.697v.871c0 1.895-.8 3.71-2.224 4.963-.104.091-.211.182-.322.274-1.308 1.093-3.258 1.64-5.85 1.64-2.605 0-4.757-.82-6.47-2.46-1.712-1.64-2.568-3.779-2.568-6.405 0-2.626.832-4.788 2.509-6.463 1.677-1.676 3.877-2.508 6.624-2.508 2.936 0 5.14.875 6.609 2.624.919 1.093.457 2.77-.889 3.25-.827.296-1.755.04-2.299-.65-.444-.563-1.052-.87-1.649-.988-.848-.168-1.233-.18-1.772-.148-1.318.077-2.39.463-3.223 1.378" transform="translate(-120 -13) translate(120.096 13) translate(10.859 4.64)"/>
                    <path fill="#1E1E1E" d="M231.853 37.285l-1.855-4.598-1.927 4.598h3.782zm-8.76 7.177c-1.646 0-2.714-1.736-1.97-3.204l6.227-12.293c.508-1.004 1.538-1.637 2.664-1.637 1.127 0 2.159.635 2.666 1.641l6.17 12.228c.756 1.497-.333 3.265-2.012 3.265-.848 0-1.624-.475-2.009-1.23l-1.097-2.156h-7.552l-1.12 2.185c-.378.738-1.137 1.201-1.966 1.201zM257.198 44.462c-1.264 0-2.289-1.024-2.289-2.287v-7.207c-1.366 1.818-2.468 3.265-3.305 4.352-.478.62-1.216.983-2 .983-.786 0-1.527-.366-2.004-.99l-3.286-4.297v7.159c0 1.263-1.025 2.287-2.29 2.287-1.264 0-2.289-1.024-2.289-2.287V30.14c0-1.501 1.218-2.718 2.72-2.718h.065c.852 0 1.656.4 2.17 1.08l4.927 6.513c.372-.48 2.037-2.654 4.987-6.522.514-.675 1.315-1.07 2.163-1.07 1.503 0 2.72 1.216 2.72 2.717v12.034c0 1.263-1.024 2.287-2.289 2.287" transform="translate(-120 -13) translate(120.096 13) translate(10.859 4.64)"/>
                    <path fill="#F1CB15" d="M282.745 27.432H279.236v-3.567c0-1.042-.846-1.887-1.889-1.887-1.043 0-1.888.845-1.888 1.887v3.567h-3.51c-1.042 0-1.888.845-1.888 1.887 0 1.043.846 1.888 1.889 1.888h3.509v3.444c0 1.042.845 1.887 1.888 1.887s1.89-.845 1.89-1.887v-3.444h3.508c1.043 0 1.888-.845 1.888-1.888 0-1.042-.845-1.887-1.888-1.887" transform="translate(-120 -13) translate(120.096 13) translate(10.859 4.64)"/>
                    <path fill="#1E1E1E" d="M272.669 40.636h-7.694v-2.745h7.302c1.05 0 1.902-.85 1.902-1.9v-.013c0-1.05-.852-1.9-1.902-1.9h-7.302v-2.853h5.548c-.58-.434-.956-1.127-.956-1.906 0-.773.37-1.46.943-1.896h-8.092c-1.05 0-1.902.851-1.902 1.901v13.237c0 1.05.851 1.901 1.902 1.901h10.251c1.05 0 1.902-.851 1.902-1.9v-.025c0-1.05-.851-1.9-1.902-1.9" transform="translate(-120 -13) translate(120.096 13) translate(10.859 4.64)"/>
                </g>
            </g>
        </g>
    </g>
</svg>
