<svg xmlns="http://www.w3.org/2000/svg" width="32" height="50" viewBox="0 0 32 50">
    <g fill="none" fill-rule="evenodd">
        <g fill="#FFF" fill-rule="nonzero">
            <g>
                <g>
                    <g>
                        <g>
                            <path d="M25 0H6.816C5.008-.001 3.273.716 1.995 1.995.716 3.273-.001 5.008 0 6.816v36.368c-.001 1.808.716 3.543 1.995 4.821C3.273 49.284 5.008 50.001 6.816 50H25c1.808.001 3.543-.716 4.821-1.995 1.279-1.278 1.997-3.013 1.995-4.821V6.816c.002-1.808-.716-3.543-1.995-4.821C28.543.716 26.808-.001 25 0zm-2.873 46.57H9.69V44.3h12.438v2.27zm6.833-5.143H2.861V4.585h26.1v36.842z" transform="translate(-1020 -1117) translate(0 934) translate(123 148) translate(810) translate(87 35)"/>
                        </g>
                    </g>
                </g>
            </g>
        </g>
    </g>
</svg>
