<?xml version="1.0" encoding="UTF-8"?>
<svg width="40px" height="40px" viewBox="0 0 40 40" version="1.1" xmlns="http://www.w3.org/2000/svg" xmlns:xlink="http://www.w3.org/1999/xlink">
    <title>033F1C7E-A62B-4067-9B85-647C3CDECC99</title>
    <g id="DONE---03_HomePage" stroke="none" stroke-width="1" fill="none" fill-rule="evenodd">
        <g id="DT_03_01_HomePage_NotLoggedIn" transform="translate(-905.000000, -690.000000)">
            <g id="features" transform="translate(0.000000, 625.000000)">
                <g id="Group" transform="translate(905.000000, 65.000000)">
                    <rect id="icon-grid" x="0" y="0" width="40" height="40"></rect>
                    <g id="Group-8" transform="translate(0.000000, 0.800000)">
                        <path d="M33.6,0 L33.6,36 L7.2,36 L7.2,0 L33.6,0 Z M3.2,3.2 L3.2,32.8 L0,32.8 L0,3.2 L3.2,3.2 Z M30.1926691,3.38727889 L10.6073309,3.38727889 L10.6073309,32.6127211 L30.1926691,32.6127211 L30.1926691,3.38727889 Z M40,3.3195 L40,32.474 L36.5822785,32.474 L36.5822785,3.3195 L40,3.3195 Z M18.2747342,14.07785 C18.4797975,14.07785 18.6458734,14.24235 18.6458734,14.44435 L18.6458734,14.44435 L18.6458734,14.69535 L21.3537215,14.69535 L21.3537215,14.44435 C21.3537215,14.24235 21.5197975,14.07785 21.7248608,14.07785 L21.7248608,14.07785 L23.6342278,14.07785 C23.8387848,14.07785 24.0048608,14.24235 24.0048608,14.44435 L24.0048608,14.44435 L24.0048608,14.69535 C24.9066329,14.69535 25.6722025,15.34535 25.8078987,16.22535 L25.8078987,16.22535 L26.652962,21.71135 C26.8742278,23.14835 25.0843544,24.00635 24.0782785,22.94585 L24.0782785,22.94585 L21.3076456,20.02485 L18.6924557,20.02485 L15.9218228,22.94585 C14.9152405,24.00635 13.1253671,23.14835 13.3471392,21.71135 L13.3471392,21.71135 L14.1922025,16.22535 C14.3273924,15.34535 15.0934684,14.69535 15.9947342,14.69535 L15.9947342,14.69535 L15.9947342,14.44435 C15.9947342,14.24235 16.1608101,14.07785 16.3658734,14.07785 L16.3658734,14.07785 Z M22.7051139,15.98085 C21.9294177,15.98085 21.3000506,16.60185 21.3000506,17.36885 C21.3000506,18.13535 21.9294177,18.75635 22.7051139,18.75635 C23.4813165,18.75635 24.1106835,18.13535 24.1106835,17.36885 C24.1106835,16.60185 23.4813165,15.98085 22.7051139,15.98085 Z M17.7987848,15.98085 L16.7906835,15.98085 L16.7906835,16.87085 L15.8889114,16.87085 L15.8889114,17.86635 L16.7906835,17.86635 L16.7906835,18.75635 L17.7987848,18.75635 L17.7987848,17.86635 L18.7000506,17.86635 L18.7000506,16.87085 L17.7987848,16.87085 L17.7987848,15.98085 Z" id="Combined-Shape" fill="#76B900"></path>
                        <g id="Group-7" transform="translate(12.800000, 3.200000)"></g>
                    </g>
                </g>
            </g>
        </g>
    </g>
</svg>