<?xml version="1.0" encoding="UTF-8"?>
<svg width="40px" height="40px" viewBox="0 0 40 40" version="1.1" xmlns="http://www.w3.org/2000/svg" xmlns:xlink="http://www.w3.org/1999/xlink">
    <title>C0E1EE51-7F38-40F9-BE9D-FCA0F0ED6322</title>
    <g id="DONE---03_HomePage" stroke="none" stroke-width="1" fill="none" fill-rule="evenodd">
        <g id="DT_03_01_HomePage_NotLoggedIn" transform="translate(-905.000000, -770.000000)">
            <g id="features" transform="translate(0.000000, 625.000000)">
                <g id="Group" transform="translate(905.000000, 145.000000)">
                    <rect id="icon-grid" x="0" y="0" width="40" height="40"></rect>
                    <g id="Group-7" fill="#76B900">
                        <path d="M3.6,28 L3.6,36.4 L36.4005333,36.4 L36.4005333,28 L40,28 L40,40 L0,40 L0,28 L3.6,28 Z M25.2305021,10.4 L25.2305021,20.973127 L28.8,20.973127 L20.0002616,32 L11.2,20.973127 L14.7694979,20.973127 L14.7694979,17.4489276 L18.2568481,17.4489276 L18.256,14.399 L15.2,14.4 L15.2,11.2 L18.4,11.2 L18.4,13.924 L21.7436751,13.9241994 L21.7436751,10.4 L25.2305021,10.4 Z M21.6,7.2 L21.6,10.4 L18.4,10.4 L18.4,7.2 L21.6,7.2 Z M24.8,4 L24.8,7.2 L21.6,7.2 L21.6,4 L24.8,4 Z M21.6,0 L21.6,3.2 L18.4,3.2 L18.4,0 L21.6,0 Z" id="Combined-Shape"></path>
                    </g>
                </g>
            </g>
        </g>
    </g>
</svg>