<svg xmlns="http://www.w3.org/2000/svg" xmlns:xlink="http://www.w3.org/1999/xlink" width="40" height="40" viewBox="0 0 40 40">
    <defs>
        <path id="l0slxwc3qa" d="M0 0L40 0 40 39.149 0 39.149z"/>
        <path id="icbafvsprc" d="M0.471 0.175L7.53 0.175 7.53 23.2 0.471 23.2z"/>
    </defs>
    <g fill="none" fill-rule="evenodd">
        <g>
            <g>
                <g>
                    <path d="M0 0H40V40H0z" transform="translate(-592 -773) translate(0 625) translate(592 148)"/>
                    <g>
                        <g transform="translate(-592 -773) translate(0 625) translate(592 148)">
                            <mask id="liso25gp5b" fill="#fff">
                                <use xlink:href="#l0slxwc3qa"/>
                            </mask>
                            <path fill="#76B900" d="M20 0C8.954 0 0 9.016 0 20.137c0 8.795 5.602 16.268 13.407 19.012l.57-3.658C7.907 33.068 3.6 27.101 3.6 20.137c0-9.105 7.357-16.512 16.4-16.512s16.4 7.407 16.4 16.512c0 6.964-4.306 12.931-10.377 15.354l.57 3.658C34.4 36.405 40 28.93 40 20.137 40 9.016 31.046 0 20 0" mask="url(#liso25gp5b)"/>
                        </g>
                        <path fill="#76B900" d="M31.2 20.236C31.2 13.921 26.185 8.8 20 8.8c-6.186 0-11.2 5.12-11.2 11.436 0 4.426 2.464 8.263 6.067 10.164l.596-3.88c-1.888-1.425-3.12-3.707-3.12-6.284 0-4.31 3.435-7.818 7.657-7.818 4.222 0 7.657 3.507 7.657 7.818 0 2.577-1.232 4.859-3.12 6.285l.596 3.879c3.603-1.901 6.067-5.738 6.067-10.164" transform="translate(-592 -773) translate(0 625) translate(592 148)"/>
                        <g transform="translate(-592 -773) translate(0 625) translate(592 148) translate(16 16.8)">
                            <mask id="ir13cly6hd" fill="#fff">
                                <use xlink:href="#icbafvsprc"/>
                            </mask>
                            <path fill="#76B900" d="M6.76 2.967C6.76 1.426 5.526.175 4 .175c-1.524 0-2.76 1.25-2.76 2.792 0 1.26.824 2.324 1.957 2.672L.47 23.2H7.53L4.803 5.64c1.133-.348 1.958-1.412 1.958-2.672" mask="url(#ir13cly6hd)"/>
                        </g>
                    </g>
                </g>
            </g>
        </g>
    </g>
</svg>
