<svg xmlns="http://www.w3.org/2000/svg" xmlns:xlink="http://www.w3.org/1999/xlink" width="500" zoomAndPan="magnify" viewBox="0 0 375 374.999991" height="500" preserveAspectRatio="xMidYMid meet" version="1.0"><defs><filter x="0%" y="0%" width="100%" height="100%" id="e3be435b9a"><feColorMatrix values="0 0 0 0 1 0 0 0 0 1 0 0 0 0 1 0 0 0 1 0" color-interpolation-filters="sRGB"/></filter><mask id="df9258faca"><g filter="url(#e3be435b9a)"><rect x="-37.5" width="450" fill="#000000" y="-37.499999" height="449.999989" fill-opacity="0.2"/></g></mask><clipPath id="b4e69d173c"><rect x="0" width="51" y="0" height="154"/></clipPath><mask id="3d49560e32"><g filter="url(#e3be435b9a)"><rect x="-37.5" width="450" fill="#000000" y="-37.499999" height="449.999989" fill-opacity="0.2"/></g></mask><clipPath id="fb7b5e0997"><rect x="0" width="178" y="0" height="221"/></clipPath></defs><rect x="-37.5" width="450" fill="#ffffff" y="-37.499999" height="449.999989" fill-opacity="1"/><rect x="-37.5" width="450" fill="#ffffff" y="-37.499999" height="449.999989" fill-opacity="1"/><rect x="-37.5" width="450" fill="#ffffff" y="-37.499999" height="449.999989" fill-opacity="1"/><path fill="#69d6f4" d="M 349.5 168.488281 C 349.5 186.957031 346.386719 204.722656 340.621094 221.238281 C 338.90625 220.925781 337.113281 220.765625 335.246094 220.765625 L 39.148438 220.765625 C 37.28125 220.765625 35.410156 220.925781 33.617188 221.3125 C 27.929688 204.71875 24.808594 186.949219 24.808594 168.480469 C 24.808594 147.601562 28.707031 127.652344 35.949219 109.34375 C 57.613281 54.101562 108.492188 13.578125 169.738281 7.109375 C 175.429688 6.492188 181.269531 6.179688 187.195312 6.179688 C 220.308594 6.179688 251.242188 16.15625 277.035156 33.296875 C 292.464844 43.582031 306.175781 56.597656 317.320312 71.402344 C 328.773438 86.75 337.660156 104.285156 343.035156 123.140625 C 347.242188 137.472656 349.5 152.75 349.5 168.488281 Z M 349.5 168.488281 " fill-opacity="1" fill-rule="nonzero"/><path fill="#000000" d="M 33.609375 227.425781 C 31.050781 227.425781 28.691406 225.804688 27.839844 223.296875 C 21.78125 205.601562 18.707031 187.15625 18.707031 168.488281 C 18.707031 147.148438 22.605469 126.5 30.28125 107.09375 C 53.332031 48.292969 106.527344 7.648438 169.105469 1.042969 C 174.960938 0.402344 181.054688 0.0742188 187.195312 0.0742188 C 220.488281 0.0742188 252.722656 9.800781 280.417969 28.210938 C 296.457031 38.90625 310.515625 52.199219 322.199219 67.730469 C 334.433594 84.117188 343.417969 102.191406 348.910156 121.464844 C 353.355469 136.601562 355.613281 152.4375 355.613281 168.488281 C 355.613281 187.285156 352.507812 205.710938 346.386719 223.253906 C 345.390625 226.09375 342.464844 227.761719 339.523438 227.246094 C 338.183594 227.003906 336.742188 226.875 335.246094 226.875 L 39.148438 226.875 C 37.574219 226.875 36.148438 227.007812 34.917969 227.277344 C 34.476562 227.382812 34.042969 227.425781 33.609375 227.425781 Z M 187.195312 12.289062 C 181.503906 12.289062 175.859375 12.59375 170.410156 13.1875 C 112.367188 19.3125 63.03125 57.011719 41.636719 111.578125 C 34.519531 129.558594 30.917969 148.699219 30.917969 168.488281 C 30.917969 184.175781 33.253906 199.695312 37.878906 214.683594 C 38.292969 214.671875 38.722656 214.667969 39.148438 214.667969 L 335.238281 214.667969 C 335.617188 214.667969 335.984375 214.671875 336.359375 214.679688 C 341.03125 199.804688 343.394531 184.292969 343.394531 168.488281 C 343.394531 153.597656 341.296875 138.921875 337.164062 124.855469 C 332.070312 106.964844 323.746094 90.226562 312.417969 75.050781 C 301.582031 60.640625 288.53125 48.296875 273.640625 38.375 C 247.96875 21.316406 218.074219 12.289062 187.195312 12.289062 Z M 187.195312 12.289062 " fill-opacity="1" fill-rule="nonzero"/><path fill="#ff914d" d="M 196.855469 43.972656 C 192.027344 45.609375 185.015625 46.625 175.113281 45.691406 C 159.6875 44.132812 150.175781 51.457031 144.960938 57.613281 C 141.375 61.898438 136.234375 64.078125 130.628906 64.160156 C 121.042969 64.238281 105.066406 68.207031 88.394531 88.625 C 65.714844 116.367188 103.277344 137.328125 115.039062 142.933594 C 117.070312 143.949219 119.328125 144.648438 121.507812 145.113281 C 134.910156 148.230469 143.09375 155.167969 148.003906 161.945312 C 153.617188 169.660156 151.429688 180.726562 143.484375 185.871094 C 127.585938 196.234375 118.785156 208.777344 114.03125 220.78125 L 79.28125 220.78125 C 78.738281 217.664062 78.347656 214.542969 78.113281 211.507812 C 77.023438 197.09375 67.75 186.339844 61.28125 180.421875 C 57.542969 177.070312 55.667969 171.925781 56.21875 166.941406 C 59.414062 138.5 48.195312 120.421875 35.960938 109.359375 C 57.625 54.117188 108.503906 13.59375 169.75 7.128906 C 182.6875 15.464844 193.203125 24.269531 199.671875 30.117188 C 204.257812 34.3125 202.78125 41.945312 196.855469 43.972656 Z M 196.855469 43.972656 " fill-opacity="1" fill-rule="nonzero"/><path fill="#ff914d" d="M 349.5 168.488281 C 349.5 186.957031 346.386719 204.722656 340.621094 221.238281 C 338.90625 220.925781 337.113281 220.765625 335.246094 220.765625 L 232.933594 220.765625 C 232.152344 214.21875 235.65625 207.679688 241.894531 204.871094 L 242.285156 204.789062 C 248.207031 202.058594 249.144531 194.273438 244.152344 190.136719 C 239.320312 186.242188 234.332031 181.179688 229.738281 176.1875 C 219.144531 164.65625 220.46875 146.5 232.3125 136.375 C 245.636719 124.765625 259.117188 116.660156 269.011719 111.515625 C 275.320312 108.324219 282.800781 111.675781 284.671875 118.527344 C 285.0625 120.164062 285.683594 121.722656 286.308594 123.359375 C 292.695312 140.03125 314.046875 145.414062 328.691406 134.890625 C 334.148438 130.992188 338.898438 127.015625 343.035156 123.128906 C 347.242188 137.472656 349.5 152.75 349.5 168.488281 Z M 349.5 168.488281 " fill-opacity="1" fill-rule="nonzero"/><path fill="#ff914d" d="M 317.332031 71.414062 C 292.804688 77.59375 270.023438 69.972656 256.417969 63.480469 C 250.851562 60.800781 250.4375 53.074219 255.695312 49.777344 C 263.429688 45.140625 270.847656 39.058594 277.03125 33.285156 C 292.492188 43.589844 306.207031 56.574219 317.332031 71.414062 Z M 317.332031 71.414062 " fill-opacity="1" fill-rule="nonzero"/><path fill="#000000" d="M 114.03125 226.882812 L 79.28125 226.882812 C 76.3125 226.882812 73.777344 224.742188 73.265625 221.816406 C 72.683594 218.507812 72.269531 215.191406 72.027344 211.964844 C 71.121094 200.019531 63.445312 190.664062 57.160156 184.917969 C 52.015625 180.3125 49.378906 173.324219 50.148438 166.269531 C 52.574219 144.667969 46.421875 127.046875 31.863281 113.878906 C 29.976562 112.175781 29.347656 109.484375 30.273438 107.121094 C 53.332031 48.292969 106.527344 7.648438 169.105469 1.042969 C 170.449219 0.910156 171.878906 1.234375 173.050781 1.984375 C 186.328125 10.542969 197.078125 19.539062 203.753906 25.570312 C 207.574219 29.070312 209.210938 34.148438 208.160156 39.179688 C 207.125 44.15625 203.636719 48.109375 198.828125 49.75 C 198.824219 49.75 198.824219 49.75 198.816406 49.757812 C 192.214844 51.992188 184.035156 52.671875 174.539062 51.765625 C 164.335938 50.742188 155.992188 54.039062 149.617188 61.558594 C 145.015625 67.054688 138.292969 70.15625 130.699219 70.261719 C 121.753906 70.332031 108.011719 74.242188 93.121094 92.480469 C 88.253906 98.433594 86.5 104.042969 87.753906 109.628906 C 90.898438 123.671875 111.445312 134.445312 117.667969 137.414062 C 119.132812 138.144531 120.859375 138.726562 122.785156 139.136719 C 135.597656 142.109375 145.988281 148.746094 152.945312 158.355469 C 156.566406 163.332031 157.988281 169.726562 156.847656 175.890625 C 155.691406 182.101562 152.027344 187.597656 146.792969 190.980469 C 133.917969 199.378906 124.792969 210.160156 119.699219 223.015625 C 118.785156 225.347656 116.535156 226.882812 114.03125 226.882812 Z M 84.550781 214.667969 L 110.003906 214.667969 C 116.25 201.121094 126.375 189.722656 140.148438 180.746094 C 142.585938 179.164062 144.296875 176.585938 144.839844 173.660156 C 145.382812 170.742188 144.753906 167.859375 143.066406 165.53125 C 137.785156 158.238281 130.066406 153.371094 120.128906 151.054688 C 117.28125 150.445312 114.621094 149.542969 112.316406 148.386719 C 102.824219 143.863281 80.070312 131.1875 75.835938 112.292969 C 73.742188 102.9375 76.378906 93.664062 83.667969 84.746094 C 101.554688 62.847656 119.046875 58.132812 130.578125 58.039062 C 133.351562 58.003906 137.320312 57.214844 140.28125 53.683594 C 146.585938 46.253906 157.746094 37.792969 175.738281 39.601562 C 185.351562 40.523438 191.46875 39.339844 194.890625 38.183594 C 195.789062 37.878906 196.105469 37.195312 196.222656 36.675781 C 196.292969 36.308594 196.378906 35.367188 195.550781 34.605469 C 189.539062 29.175781 180.011719 21.179688 168.253906 13.425781 C 112.5 20.082031 65.050781 55.9375 43.179688 107.808594 C 54.398438 119.242188 65.589844 138.308594 62.296875 167.609375 C 61.953125 170.6875 63.132812 173.855469 65.363281 175.851562 C 73.328125 183.140625 83.007812 195.109375 84.210938 211.03125 C 84.285156 212.234375 84.40625 213.445312 84.550781 214.667969 Z M 196.855469 43.972656 L 196.917969 43.972656 Z M 196.855469 43.972656 " fill-opacity="1" fill-rule="nonzero"/><path fill="#000000" d="M 340.621094 227.34375 C 340.253906 227.34375 339.886719 227.316406 339.515625 227.246094 C 338.179688 227.003906 336.738281 226.875 335.238281 226.875 L 232.933594 226.875 C 229.835938 226.875 227.234375 224.566406 226.867188 221.496094 C 225.746094 212.09375 230.785156 203.179688 239.390625 199.304688 C 239.628906 199.195312 239.878906 199.105469 240.128906 199.03125 C 240.964844 198.488281 241.191406 197.707031 241.246094 197.253906 C 241.320312 196.722656 241.28125 195.695312 240.261719 194.847656 C 235.9375 191.367188 231.148438 186.738281 225.25 180.335938 C 219.050781 173.59375 215.949219 164.8125 216.5 155.59375 C 217.054688 146.398438 221.371094 137.699219 228.339844 131.738281 C 239.578125 121.941406 252.332031 113.304688 266.1875 106.105469 C 270.890625 103.730469 276.242188 103.578125 280.960938 105.671875 C 285.683594 107.773438 289.183594 111.878906 290.558594 116.933594 C 290.90625 118.355469 291.382812 119.546875 291.851562 120.78125 C 294.234375 126.988281 299.066406 131.378906 305.277344 133.242188 C 312.011719 135.261719 319.433594 134.035156 325.132812 129.941406 C 330.011719 126.457031 334.625 122.675781 338.832031 118.699219 C 340.375 117.238281 342.542969 116.675781 344.621094 117.246094 C 346.667969 117.800781 348.285156 119.382812 348.882812 121.421875 C 353.335938 136.601562 355.601562 152.441406 355.601562 168.492188 C 355.601562 187.292969 352.492188 205.71875 346.375 223.257812 C 345.511719 225.738281 343.171875 227.34375 340.621094 227.34375 Z M 239.988281 214.667969 L 335.238281 214.667969 C 335.617188 214.667969 335.984375 214.671875 336.359375 214.679688 C 341.03125 199.804688 343.394531 184.292969 343.394531 168.488281 C 343.394531 156.890625 342.125 145.414062 339.605469 134.253906 C 337.226562 136.191406 334.769531 138.070312 332.246094 139.867188 C 323.507812 146.140625 312.109375 148.035156 301.777344 144.9375 C 291.914062 141.980469 284.195312 134.914062 280.609375 125.558594 C 279.785156 123.421875 279.15625 121.726562 278.726562 119.96875 C 278.214844 118.089844 276.796875 117.191406 275.996094 116.835938 C 275.210938 116.488281 273.628906 116.046875 271.765625 116.984375 C 262.886719 121.59375 249.472656 129.539062 236.324219 140.992188 C 231.75 144.90625 229.054688 150.335938 228.6875 156.332031 C 228.335938 162.207031 230.308594 167.796875 234.234375 172.074219 C 239.707031 178.015625 244.078125 182.253906 247.988281 185.398438 C 252.039062 188.753906 254.023438 193.761719 253.355469 198.839844 C 252.699219 203.890625 249.507812 208.199219 244.832031 210.347656 C 244.53125 210.488281 244.21875 210.605469 243.910156 210.691406 C 242.203125 211.582031 240.847656 212.992188 239.988281 214.667969 Z M 239.988281 214.667969 " fill-opacity="1" fill-rule="nonzero"/><path fill="#000000" d="M 298.601562 79.820312 C 280.882812 79.820312 265.101562 74.390625 253.789062 68.996094 C 249.199219 66.785156 246.1875 62.277344 245.90625 57.222656 C 245.617188 52.144531 248.128906 47.316406 252.453125 44.601562 C 258.988281 40.683594 265.824219 35.394531 272.863281 28.820312 C 274.945312 26.886719 278.066406 26.636719 280.417969 28.203125 C 296.519531 38.933594 310.578125 52.242188 322.21875 67.757812 C 323.445312 69.394531 323.777344 71.53125 323.09375 73.460938 C 322.414062 75.386719 320.8125 76.84375 318.828125 77.34375 C 311.910156 79.085938 305.125 79.820312 298.601562 79.820312 Z M 277.5625 41.054688 C 271.148438 46.710938 264.875 51.386719 258.847656 55.011719 C 258.207031 55.414062 258.078125 56.074219 258.101562 56.535156 C 258.132812 56.996094 258.316406 57.613281 259.074219 57.976562 C 270.707031 63.53125 287.667969 69.15625 306.148438 67.207031 C 297.722656 57.335938 288.140625 48.574219 277.5625 41.054688 Z M 277.5625 41.054688 " fill-opacity="1" fill-rule="nonzero"/><path fill="#ed5565" d="M 366.40625 251.941406 L 366.40625 337.652344 C 366.40625 354.875 352.378906 368.820312 335.238281 368.820312 L 39.148438 368.820312 C 21.925781 368.820312 7.984375 354.871094 7.984375 337.652344 L 7.984375 251.941406 C 7.984375 236.59375 19.050781 223.886719 33.617188 221.316406 C 35.40625 220.925781 37.28125 220.773438 39.148438 220.773438 L 335.238281 220.773438 C 337.109375 220.773438 338.90625 220.933594 340.613281 221.242188 C 355.265625 223.808594 366.40625 236.59375 366.40625 251.941406 Z M 366.40625 251.941406 " fill-opacity="1" fill-rule="nonzero"/><g mask="url(#df9258faca)"><g transform="matrix(1, 0, 0, 1, 3, 217)"><g clip-path="url(#b4e69d173c)"><path fill="#000000" d="M 17.429688 120.652344 L 17.429688 34.941406 C 17.429688 19.59375 28.496094 6.886719 43.0625 4.316406 C 44.851562 3.925781 46.726562 3.773438 48.597656 3.773438 L 36.148438 3.773438 C 34.28125 3.773438 32.410156 3.933594 30.617188 4.316406 C 16.042969 6.886719 4.984375 19.59375 4.984375 34.941406 L 4.984375 120.652344 C 4.984375 137.875 18.933594 151.820312 36.148438 151.820312 L 48.601562 151.820312 C 31.378906 151.820312 17.429688 137.871094 17.429688 120.652344 Z M 17.429688 120.652344 " fill-opacity="1" fill-rule="nonzero"/></g></g></g><path fill="#000000" d="M 335.238281 374.925781 L 39.148438 374.925781 C 18.597656 374.925781 1.867188 358.203125 1.867188 337.648438 L 1.867188 251.941406 C 1.867188 233.851562 14.769531 218.441406 32.546875 215.300781 C 34.402344 214.890625 36.699219 214.667969 39.144531 214.667969 L 335.234375 214.667969 C 337.46875 214.667969 339.648438 214.855469 341.707031 215.234375 C 359.542969 218.359375 372.515625 233.808594 372.515625 251.941406 L 372.515625 337.652344 C 372.519531 358.203125 355.792969 374.925781 335.238281 374.925781 Z M 39.148438 226.882812 C 37.574219 226.882812 36.148438 227.015625 34.917969 227.285156 C 22.75 229.441406 14.089844 239.785156 14.089844 251.941406 L 14.089844 337.652344 C 14.089844 351.472656 25.332031 362.71875 39.15625 362.71875 L 335.246094 362.71875 C 349.066406 362.71875 360.3125 351.472656 360.3125 337.652344 L 360.3125 251.941406 C 360.3125 239.742188 351.582031 229.367188 339.570312 227.253906 C 338.191406 227.003906 336.75 226.875 335.253906 226.875 L 39.148438 226.875 Z M 39.148438 226.882812 " fill-opacity="1" fill-rule="nonzero"/><path fill="#000000" d="M 68.789062 268.3125 L 94.855469 307.761719 L 94.855469 267.949219 C 94.855469 265.359375 95.410156 263.421875 96.523438 262.128906 C 97.632812 260.832031 99.128906 260.183594 101.019531 260.183594 C 102.964844 260.183594 104.503906 260.832031 105.628906 262.128906 C 106.753906 263.421875 107.320312 265.363281 107.320312 267.949219 L 107.320312 320.589844 C 107.320312 326.464844 104.882812 329.402344 100.015625 329.402344 C 98.800781 329.402344 97.703125 329.222656 96.730469 328.875 C 95.757812 328.527344 94.84375 327.972656 93.988281 327.207031 C 93.132812 326.445312 92.34375 325.558594 91.613281 324.539062 C 90.878906 323.519531 90.152344 322.476562 89.417969 321.414062 L 63.988281 282.421875 L 63.988281 321.640625 C 63.988281 324.199219 63.394531 326.128906 62.203125 327.433594 C 61.019531 328.742188 59.492188 329.394531 57.636719 329.394531 C 55.71875 329.394531 54.179688 328.734375 53.023438 327.410156 C 51.871094 326.085938 51.289062 324.160156 51.289062 321.632812 L 51.289062 269.992188 C 51.289062 267.800781 51.535156 266.085938 52.023438 264.832031 C 52.605469 263.464844 53.5625 262.347656 54.898438 261.480469 C 56.238281 260.613281 57.683594 260.179688 59.238281 260.179688 C 60.453125 260.179688 61.496094 260.375 62.363281 260.773438 C 63.230469 261.167969 63.996094 261.699219 64.648438 262.371094 C 65.300781 263.042969 65.972656 263.910156 66.65625 264.972656 C 67.339844 266.035156 68.054688 267.160156 68.789062 268.3125 Z M 68.789062 268.3125 " fill-opacity="1" fill-rule="nonzero"/><path fill="#000000" d="M 166.265625 271.785156 L 135.71875 271.785156 L 135.71875 288.21875 L 163.84375 288.21875 C 165.917969 288.21875 167.460938 288.683594 168.480469 289.609375 C 169.5 290.539062 170.007812 291.765625 170.007812 293.289062 C 170.007812 294.808594 169.507812 296.046875 168.5 297.007812 C 167.496094 297.964844 165.941406 298.441406 163.84375 298.441406 L 135.71875 298.441406 L 135.71875 317.480469 L 167.316406 317.480469 C 169.445312 317.480469 171.050781 317.972656 172.132812 318.964844 C 173.214844 319.953125 173.753906 321.273438 173.753906 322.914062 C 173.753906 324.496094 173.214844 325.785156 172.132812 326.773438 C 171.050781 327.765625 169.445312 328.257812 167.316406 328.257812 L 130.46875 328.257812 C 127.519531 328.257812 125.394531 327.605469 124.097656 326.300781 C 122.804688 324.992188 122.15625 322.871094 122.15625 319.953125 L 122.15625 269.640625 C 122.15625 267.691406 122.441406 266.101562 123.023438 264.871094 C 123.601562 263.636719 124.507812 262.738281 125.742188 262.175781 C 126.976562 261.613281 128.550781 261.332031 130.46875 261.332031 L 166.265625 261.332031 C 168.425781 261.332031 170.03125 261.808594 171.082031 262.769531 C 172.132812 263.726562 172.660156 264.984375 172.660156 266.535156 C 172.660156 268.117188 172.132812 269.390625 171.082031 270.347656 C 170.027344 271.308594 168.421875 271.785156 166.265625 271.785156 Z M 166.265625 271.785156 " fill-opacity="1" fill-rule="nonzero"/><path fill="#000000" d="M 231.914062 317.710938 L 221.089844 277.585938 L 210.132812 317.71875 C 209.28125 320.757812 208.609375 322.945312 208.101562 324.269531 C 207.601562 325.597656 206.71875 326.78125 205.472656 327.832031 C 204.226562 328.882812 202.566406 329.40625 200.496094 329.40625 C 198.824219 329.40625 197.441406 329.097656 196.363281 328.472656 C 195.28125 327.851562 194.40625 326.964844 193.734375 325.824219 C 193.0625 324.679688 192.519531 323.324219 192.09375 321.761719 C 191.664062 320.191406 191.285156 318.738281 190.949219 317.398438 L 179.8125 272.339844 C 179.140625 269.71875 178.808594 267.726562 178.808594 266.359375 C 178.808594 264.625 179.417969 263.164062 180.636719 261.976562 C 181.851562 260.789062 183.359375 260.191406 185.15625 260.191406 C 187.621094 260.191406 189.277344 260.984375 190.132812 262.566406 C 190.988281 264.148438 191.734375 266.445312 192.367188 269.460938 L 201.132812 308.542969 L 210.945312 271.972656 C 211.679688 269.175781 212.332031 267.042969 212.90625 265.578125 C 213.480469 264.113281 214.429688 262.855469 215.734375 261.792969 C 217.042969 260.730469 218.824219 260.191406 221.078125 260.191406 C 223.363281 260.191406 225.132812 260.746094 226.398438 261.859375 C 227.664062 262.96875 228.535156 264.179688 229.023438 265.488281 C 229.511719 266.792969 230.167969 268.957031 230.984375 271.972656 L 240.890625 308.542969 L 249.65625 269.460938 C 250.082031 267.421875 250.488281 265.824219 250.863281 264.667969 C 251.242188 263.515625 251.898438 262.476562 252.824219 261.566406 C 253.753906 260.648438 255.105469 260.199219 256.867188 260.199219 C 258.632812 260.199219 260.128906 260.785156 261.363281 261.957031 C 262.597656 263.128906 263.214844 264.59375 263.214844 266.359375 C 263.214844 267.605469 262.878906 269.601562 262.214844 272.339844 L 251.074219 317.398438 C 250.308594 320.441406 249.679688 322.671875 249.179688 324.089844 C 248.679688 325.503906 247.824219 326.746094 246.621094 327.808594 C 245.417969 328.871094 243.71875 329.40625 241.527344 329.40625 C 239.457031 329.40625 237.800781 328.886719 236.550781 327.855469 C 235.304688 326.824219 234.4375 325.65625 233.949219 324.363281 C 233.457031 323.066406 232.800781 320.851562 231.914062 317.710938 Z M 231.914062 317.710938 " fill-opacity="1" fill-rule="nonzero"/><path fill="#000000" d="M 323.09375 308.171875 C 323.09375 312.222656 322.046875 315.855469 319.964844 319.085938 C 317.882812 322.316406 314.828125 324.839844 310.808594 326.664062 C 306.792969 328.492188 302.027344 329.40625 296.519531 329.40625 C 289.917969 329.40625 284.460938 328.160156 280.175781 325.664062 C 277.132812 323.867188 274.660156 321.472656 272.753906 318.476562 C 270.855469 315.476562 269.902344 312.5625 269.902344 309.730469 C 269.902344 308.085938 270.46875 306.675781 271.613281 305.507812 C 272.753906 304.335938 274.207031 303.75 275.972656 303.75 C 277.402344 303.75 278.613281 304.207031 279.601562 305.117188 C 280.589844 306.035156 281.433594 307.382812 282.136719 309.179688 C 282.992188 311.3125 283.90625 313.089844 284.894531 314.523438 C 285.886719 315.953125 287.277344 317.132812 289.074219 318.058594 C 290.871094 318.988281 293.226562 319.453125 296.152344 319.453125 C 300.171875 319.453125 303.433594 318.519531 305.941406 316.644531 C 308.453125 314.773438 309.710938 312.433594 309.710938 309.636719 C 309.710938 307.414062 309.03125 305.613281 307.675781 304.226562 C 306.320312 302.839844 304.574219 301.785156 302.425781 301.050781 C 300.28125 300.316406 297.410156 299.542969 293.820312 298.722656 C 289.011719 297.601562 284.988281 296.28125 281.746094 294.773438 C 278.5 293.261719 275.929688 291.210938 274.03125 288.609375 C 272.132812 286.007812 271.179688 282.769531 271.179688 278.90625 C 271.179688 275.222656 272.179688 271.949219 274.191406 269.089844 C 276.199219 266.230469 279.105469 264.027344 282.910156 262.492188 C 286.714844 260.953125 291.191406 260.183594 296.335938 260.183594 C 300.445312 260.183594 304 260.691406 307 261.710938 C 309.996094 262.730469 312.484375 264.089844 314.460938 265.773438 C 316.441406 267.464844 317.890625 269.238281 318.800781 271.09375 C 319.714844 272.949219 320.167969 274.765625 320.167969 276.527344 C 320.167969 278.140625 319.597656 279.59375 318.457031 280.890625 C 317.316406 282.183594 315.890625 282.832031 314.1875 282.832031 C 312.636719 282.832031 311.457031 282.441406 310.652344 281.664062 C 309.84375 280.890625 308.972656 279.621094 308.023438 277.855469 C 306.808594 275.324219 305.34375 273.359375 303.640625 271.941406 C 301.9375 270.523438 299.195312 269.816406 295.417969 269.816406 C 291.917969 269.816406 289.097656 270.585938 286.949219 272.125 C 284.804688 273.664062 283.730469 275.507812 283.730469 277.671875 C 283.730469 279.007812 284.097656 280.167969 284.824219 281.140625 C 285.554688 282.109375 286.558594 282.953125 287.832031 283.648438 C 289.109375 284.351562 290.40625 284.894531 291.710938 285.292969 C 293.019531 285.691406 295.179688 286.265625 298.199219 287.027344 C 301.972656 287.914062 305.386719 288.882812 308.445312 289.945312 C 311.507812 291.007812 314.109375 292.304688 316.253906 293.824219 C 318.394531 295.347656 320.070312 297.269531 321.273438 299.601562 C 322.488281 301.941406 323.09375 304.792969 323.09375 308.171875 Z M 323.09375 308.171875 " fill-opacity="1" fill-rule="nonzero"/><g mask="url(#3d49560e32)"><g transform="matrix(1, 0, 0, 1, 28, 4)"><g clip-path="url(#fb7b5e0997)"><path fill="#000000" d="M 18.128906 164.488281 C 18.128906 143.605469 22.027344 123.660156 29.269531 105.347656 C 50.933594 50.105469 101.816406 9.582031 163.0625 3.113281 C 165.886719 2.804688 168.753906 2.570312 171.648438 2.417969 C 169.527344 2.339844 167.433594 2.179688 165.300781 2.179688 C 159.378906 2.179688 153.539062 2.492188 147.847656 3.113281 C 86.601562 9.582031 35.71875 50.101562 14.0625 105.347656 C 6.820312 123.660156 2.921875 143.605469 2.921875 164.488281 C 2.921875 182.957031 6.035156 200.722656 11.730469 217.316406 C 13.519531 216.925781 15.394531 216.773438 17.261719 216.773438 L 26.777344 216.773438 C 21.195312 200.324219 18.128906 182.753906 18.128906 164.488281 Z M 18.128906 164.488281 " fill-opacity="1" fill-rule="nonzero"/></g></g></g></svg>