<svg id="visual" viewBox="0 0 1536 792" width="1536" height="792" xmlns="http://www.w3.org/2000/svg" xmlns:xlink="http://www.w3.org/1999/xlink" version="1.1"><rect width="1536" height="792" fill="#001829"></rect><g><g transform="translate(896 255)"><path d="M0 -52L45.1 -26L45.1 26L0 52L-45.1 26L-45.1 -26Z" fill="none" stroke="#297EA6" stroke-width="1"></path></g><g transform="translate(230 414)"><path d="M0 -44L38.1 -22L38.1 22L0 44L-38.1 22L-38.1 -22Z" fill="none" stroke="#297EA6" stroke-width="1"></path></g><g transform="translate(1179 412)"><path d="M0 -42L36.4 -21L36.4 21L0 42L-36.4 21L-36.4 -21Z" stroke="#297EA6" fill="none" stroke-width="1"></path></g><g transform="translate(482 112)"><path d="M0 -50L43.3 -25L43.3 25L0 50L-43.3 25L-43.3 -25Z" stroke="#297EA6" fill="none" stroke-width="1"></path></g><g transform="translate(722 134)"><path d="M0 -36L31.2 -18L31.2 18L0 36L-31.2 18L-31.2 -18Z" stroke="#297EA6" fill="none" stroke-width="1"></path></g><g transform="translate(1045 516)"><path d="M0 -28L24.2 -14L24.2 14L0 28L-24.2 14L-24.2 -14Z" stroke="#297EA6" fill="none" stroke-width="1"></path></g><g transform="translate(1369 49)"><path d="M0 -31L26.8 -15.5L26.8 15.5L0 31L-26.8 15.5L-26.8 -15.5Z" stroke="#297EA6" fill="none" stroke-width="1"></path></g><g transform="translate(886 413)"><path d="M0 -32L27.7 -16L27.7 16L0 32L-27.7 16L-27.7 -16Z" stroke="#297EA6" fill="none" stroke-width="1"></path></g><g transform="translate(1347 276)"><path d="M0 -31L26.8 -15.5L26.8 15.5L0 31L-26.8 15.5L-26.8 -15.5Z" stroke="#297EA6" fill="none" stroke-width="1"></path></g><g transform="translate(1100 672)"><path d="M0 -16L13.9 -8L13.9 8L0 16L-13.9 8L-13.9 -8Z" stroke="#297EA6" fill="none" stroke-width="1"></path></g><g transform="translate(705 636)"><path d="M0 -14L12.1 -7L12.1 7L0 14L-12.1 7L-12.1 -7Z" stroke="#297EA6" fill="none" stroke-width="1"></path></g><g transform="translate(514 297)"><path d="M0 -28L24.2 -14L24.2 14L0 28L-24.2 14L-24.2 -14Z" stroke="#297EA6" fill="none" stroke-width="1"></path></g><g transform="translate(374 321)"><path d="M0 -40L34.6 -20L34.6 20L0 40L-34.6 20L-34.6 -20Z" stroke="#297EA6" fill="none" stroke-width="1"></path></g><g transform="translate(356 770)"><path d="M0 -23L19.9 -11.5L19.9 11.5L0 23L-19.9 11.5L-19.9 -11.5Z" stroke="#297EA6" fill="none" stroke-width="1"></path></g><g transform="translate(1148 779)"><path d="M0 -18L15.6 -9L15.6 9L0 18L-15.6 9L-15.6 -9Z" stroke="#297EA6" fill="none" stroke-width="1"></path></g><g transform="translate(1250 70)"><path d="M0 -43L37.2 -21.5L37.2 21.5L0 43L-37.2 21.5L-37.2 -21.5Z" stroke="#297EA6" fill="none" stroke-width="1"></path></g><g transform="translate(70 375)"><path d="M0 -27L23.4 -13.5L23.4 13.5L0 27L-23.4 13.5L-23.4 -13.5Z" stroke="#297EA6" fill="none" stroke-width="1"></path></g><g transform="translate(1334 415)"><path d="M0 -30L26 -15L26 15L0 30L-26 15L-26 -15Z" stroke="#297EA6" fill="none" stroke-width="1"></path></g><g transform="translate(1402 691)"><path d="M0 -36L31.2 -18L31.2 18L0 36L-31.2 18L-31.2 -18Z" stroke="#297EA6" fill="none" stroke-width="1"></path></g><g transform="translate(407 481)"><path d="M0 -29L25.1 -14.5L25.1 14.5L0 29L-25.1 14.5L-25.1 -14.5Z" stroke="#297EA6" fill="none" stroke-width="1"></path></g><g transform="translate(368 67)"><path d="M0 -30L26 -15L26 15L0 30L-26 15L-26 -15Z" stroke="#297EA6" fill="none" stroke-width="1"></path></g><g transform="translate(263 214)"><path d="M0 -31L26.8 -15.5L26.8 15.5L0 31L-26.8 15.5L-26.8 -15.5Z" stroke="#297EA6" fill="none" stroke-width="1"></path></g><g transform="translate(741 736)"><path d="M0 -43L37.2 -21.5L37.2 21.5L0 43L-37.2 21.5L-37.2 -21.5Z" stroke="#297EA6" fill="none" stroke-width="1"></path></g><g transform="translate(3 539)"><path d="M0 -25L21.7 -12.5L21.7 12.5L0 25L-21.7 12.5L-21.7 -12.5Z" stroke="#297EA6" fill="none" stroke-width="1"></path></g><g transform="translate(127 719)"><path d="M0 -31L26.8 -15.5L26.8 15.5L0 31L-26.8 15.5L-26.8 -15.5Z" stroke="#297EA6" fill="none" stroke-width="1"></path></g><g transform="translate(878 667)"><path d="M0 -32L27.7 -16L27.7 16L0 32L-27.7 16L-27.7 -16Z" stroke="#297EA6" fill="none" stroke-width="1"></path></g></g></svg>