<svg xmlns="http://www.w3.org/2000/svg" width="40" height="40" viewBox="0 0 40 40">
    <g fill="none" fill-rule="evenodd">
        <g>
            <g>
                <g>
                    <path d="M0 0H40V40H0z" transform="translate(-905 -690) translate(0 625) translate(905 65)"/>
                    <g>
                        <path fill="#76B900" d="M33.6 0v36H7.2V0h26.4zM3.2 3.2v29.6H0V3.2h3.2zm26.993.187H10.607v29.226h19.586V3.387zM40 3.32v29.154h-3.418V3.32H40zM18.275 14.077c.205 0 .37.164.37.366v.251h2.709v-.25c0-.203.166-.367.37-.367h1.91c.205 0 .37.164.37.366v.251c.903 0 1.668.65 1.804 1.53l.845 5.486c.221 1.437-1.569 2.295-2.575 1.235l-2.77-2.921h-2.616l-2.77 2.92c-1.007 1.061-2.797.203-2.575-1.234l.845-5.486c.135-.88.901-1.53 1.803-1.53v-.25c0-.203.166-.367.37-.367zm4.43 1.903c-.776 0-1.405.62-1.405 1.388 0 .766.63 1.387 1.405 1.387.776 0 1.406-.62 1.406-1.387s-.63-1.388-1.406-1.388zm-4.906 0H16.79v.89h-.902v.995h.902v.89h1.008v-.89h.901v-.995H17.8v-.89z" transform="translate(-905 -690) translate(0 625) translate(905 65) translate(0 .8)"/>
                    </g>
                </g>
            </g>
        </g>
    </g>
</svg>
