<?xml version="1.0" encoding="UTF-8"?>
<svg width="52px" height="52px" viewBox="0 0 52 52" version="1.1" xmlns="http://www.w3.org/2000/svg" xmlns:xlink="http://www.w3.org/1999/xlink">
    <title>4D4DD5AC-C75C-4DDE-9380-D5B99253E77B</title>
    <defs>
        <path d="M14.4274718,5.26078225 C14.8357305,4.88883698 15.4682108,4.91827482 15.8401561,5.32653351 C16.2121013,5.7347922 16.1826635,6.36727248 15.7744048,6.73921775 L10.0000067,11.9999933 L15.7744048,17.2607822 C16.1826635,17.6327275 16.2121013,18.2652078 15.8401561,18.6734665 C15.4682108,19.0817252 14.8357305,19.111163 14.4274718,18.7392178 L8.65307376,13.4784355 C8.60722421,13.4366641 8.56334261,13.3927825 8.52157124,13.346933 C7.77768069,12.5304156 7.83655637,11.265455 8.65307376,10.5215645 L14.4274718,5.26078225 Z" id="path-1"></path>
    </defs>
    <g id="DONE---03_HomePage" stroke="none" stroke-width="1" fill="none" fill-rule="evenodd">
        <g id="DT_03_01_HomePage_NotLoggedIn" transform="translate(-1360.000000, -364.000000)">
            <g id="hero" transform="translate(0.000000, 80.000000)">
                <g id="icon/arrow/right" transform="translate(1362.000000, 286.000000)">
                    <circle id="Oval" stroke="#76B900" stroke-width="4" cx="24" cy="24" r="24"></circle>
                    <g id="Group" transform="translate(24.000000, 24.000000) rotate(-180.000000) translate(-24.000000, -24.000000) translate(12.000000, 12.000000)">
                        <g id="Icons/Grid" opacity="0" stroke="#979797" stroke-width="0.2">
                            <g id="Group" transform="translate(2.000000, 2.000000)">
                                <rect id="Rectangle" x="0.1" y="0.1" width="19.8" height="19.8"></rect>
                                <rect id="Rectangle-2" x="2.1" y="0.1" width="15.8" height="19.8"></rect>
                                <rect id="Rectangle-2" transform="translate(10.000000, 10.000000) rotate(-90.000000) translate(-10.000000, -10.000000) " x="2.1" y="0.1" width="15.8" height="19.8"></rect>
                                <circle id="Oval" cx="10" cy="10" r="9.9"></circle>
                                <rect id="Rectangle-5" x="6.1" y="6.1" width="7.8" height="7.8"></rect>
                            </g>
                        </g>
                        <mask id="mask-2" fill="white">
                            <use xlink:href="#path-1"></use>
                        </mask>
                        <g id="Icon_Mask" fill-rule="nonzero"></g>
                        <g id="Color/Black" mask="url(#mask-2)" fill="#76B900">
                            <rect x="0" y="0" width="24" height="24"></rect>
                        </g>
                    </g>
                </g>
            </g>
        </g>
    </g>
</svg>